<svg width="668" height="123" viewBox="0 0 668 123" fill="none" xmlns="http://www.w3.org/2000/svg">
<path d="M642 122C655.807 122 667 110.807 667 97C667 83.1929 655.807 72 642 72C628.193 72 617 83.1929 617 97C617 110.807 628.193 122 642 122Z" fill="#DAEEFF" stroke="black"/>
<path d="M641.931 107.3C640.671 107.3 639.571 107.15 638.631 106.85C637.691 106.53 636.901 106.11 636.261 105.59C635.621 105.07 635.131 104.5 634.791 103.88C634.471 103.26 634.301 102.62 634.281 101.96C634.281 101.78 634.341 101.64 634.461 101.54C634.581 101.44 634.731 101.39 634.911 101.39H636.381C636.561 101.39 636.721 101.43 636.861 101.51C637.001 101.59 637.121 101.76 637.221 102.02C637.421 102.74 637.761 103.3 638.241 103.7C638.741 104.1 639.311 104.38 639.951 104.54C640.611 104.68 641.271 104.75 641.931 104.75C643.311 104.75 644.431 104.42 645.291 103.76C646.151 103.1 646.581 102.13 646.581 100.85C646.581 99.55 646.191 98.62 645.411 98.06C644.631 97.5 643.551 97.22 642.171 97.22H639.321C639.121 97.22 638.951 97.16 638.811 97.04C638.691 96.92 638.631 96.75 638.631 96.53V95.72C638.631 95.54 638.661 95.39 638.721 95.27C638.801 95.13 638.881 95.01 638.961 94.91L644.781 88.55H635.931C635.731 88.55 635.561 88.49 635.421 88.37C635.301 88.25 635.241 88.08 635.241 87.86V86.72C635.241 86.5 635.301 86.33 635.421 86.21C635.561 86.07 635.731 86 635.931 86H647.901C648.121 86 648.291 86.07 648.411 86.21C648.551 86.33 648.621 86.5 648.621 86.72V87.8C648.621 87.94 648.581 88.07 648.501 88.19C648.441 88.29 648.371 88.39 648.291 88.49L642.501 94.94L642.981 94.97C644.301 95.01 645.451 95.25 646.431 95.69C647.431 96.13 648.201 96.79 648.741 97.67C649.301 98.53 649.581 99.62 649.581 100.94C649.581 102.28 649.251 103.43 648.591 104.39C647.931 105.33 647.021 106.05 645.861 106.55C644.701 107.05 643.391 107.3 641.931 107.3Z" fill="black"/>
<path d="M638.631 106.85L638.47 107.323L638.479 107.326L638.631 106.85ZM634.791 103.88L634.347 104.109L634.353 104.12L634.791 103.88ZM634.281 101.96H633.781V101.968V101.975L634.281 101.96ZM637.221 102.02L637.703 101.886L637.697 101.863L637.688 101.841L637.221 102.02ZM638.241 103.7L637.921 104.084L637.929 104.09L638.241 103.7ZM639.951 104.54L639.83 105.025L639.839 105.027L639.847 105.029L639.951 104.54ZM638.811 97.04L638.458 97.3936L638.471 97.4071L638.486 97.4196L638.811 97.04ZM638.721 95.27L638.287 95.0219L638.28 95.034L638.274 95.0464L638.721 95.27ZM638.961 94.91L638.592 94.5725L638.581 94.5847L638.571 94.5977L638.961 94.91ZM644.781 88.55L645.15 88.8875L645.917 88.05H644.781V88.55ZM635.421 88.37L635.068 88.7236L635.081 88.7371L635.096 88.7496L635.421 88.37ZM648.411 86.21L648.032 86.5354L648.057 86.5646L648.086 86.5896L648.411 86.21ZM648.501 88.19L648.085 87.9126L648.079 87.9225L648.072 87.9327L648.501 88.19ZM648.291 88.49L648.663 88.824L648.673 88.8134L648.682 88.8023L648.291 88.49ZM642.501 94.94L642.129 94.606L641.439 95.3746L642.47 95.439L642.501 94.94ZM642.981 94.97L642.95 95.469L642.958 95.4695L642.966 95.4698L642.981 94.97ZM646.431 95.69L646.226 96.1461L646.23 96.1477L646.431 95.69ZM648.741 97.67L648.315 97.9316L648.322 97.9428L648.741 97.67ZM648.591 104.39L649 104.677L649.003 104.673L648.591 104.39ZM641.931 106.8C640.709 106.8 639.663 106.654 638.783 106.374L638.479 107.326C639.48 107.646 640.633 107.8 641.931 107.8V106.8ZM638.792 106.377C637.897 106.072 637.162 105.678 636.577 105.202L635.946 105.978C636.64 106.542 637.485 106.988 638.47 107.323L638.792 106.377ZM636.577 105.202C635.978 104.716 635.534 104.194 635.23 103.64L634.353 104.12C634.729 104.806 635.264 105.424 635.946 105.978L636.577 105.202ZM635.236 103.651C634.948 103.093 634.799 102.526 634.781 101.945L633.781 101.975C633.804 102.714 633.995 103.427 634.347 104.109L635.236 103.651ZM634.781 101.96C634.781 101.926 634.787 101.914 634.786 101.917C634.785 101.918 634.784 101.92 634.782 101.922C634.781 101.925 634.78 101.925 634.781 101.924L634.141 101.156C633.889 101.366 633.781 101.657 633.781 101.96H634.781ZM634.781 101.924C634.798 101.91 634.829 101.89 634.911 101.89V100.89C634.633 100.89 634.364 100.97 634.141 101.156L634.781 101.924ZM634.911 101.89H636.381V100.89H634.911V101.89ZM636.381 101.89C636.485 101.89 636.557 101.912 636.613 101.944L637.109 101.076C636.885 100.948 636.638 100.89 636.381 100.89V101.89ZM636.613 101.944C636.604 101.939 636.618 101.944 636.648 101.986C636.677 102.028 636.715 102.096 636.755 102.199L637.688 101.841C637.574 101.544 637.4 101.242 637.109 101.076L636.613 101.944ZM636.739 102.154C636.961 102.952 637.349 103.607 637.921 104.084L638.561 103.316C638.174 102.993 637.881 102.528 637.703 101.886L636.739 102.154ZM637.929 104.09C638.487 104.537 639.122 104.848 639.83 105.025L640.072 104.055C639.5 103.912 638.996 103.663 638.554 103.31L637.929 104.09ZM639.847 105.029C640.541 105.176 641.236 105.25 641.931 105.25V104.25C641.307 104.25 640.682 104.184 640.055 104.051L639.847 105.029ZM641.931 105.25C643.391 105.25 644.627 104.9 645.596 104.157L644.987 103.363C644.236 103.94 643.232 104.25 641.931 104.25V105.25ZM645.596 104.157C646.602 103.384 647.081 102.254 647.081 100.85H646.081C646.081 102.006 645.7 102.816 644.987 103.363L645.596 104.157ZM647.081 100.85C647.081 99.4509 646.657 98.3388 645.703 97.6538L645.12 98.4662C645.725 98.9012 646.081 99.6491 646.081 100.85H647.081ZM645.703 97.6538C644.808 97.0114 643.612 96.72 642.171 96.72V97.72C643.491 97.72 644.454 97.9886 645.12 98.4662L645.703 97.6538ZM642.171 96.72H639.321V97.72H642.171V96.72ZM639.321 96.72C639.23 96.72 639.178 96.6959 639.137 96.6604L638.486 97.4196C638.724 97.6241 639.013 97.72 639.321 97.72V96.72ZM639.165 96.6864C639.164 96.6857 639.131 96.6584 639.131 96.53H638.131C638.131 96.8416 638.218 97.1543 638.458 97.3936L639.165 96.6864ZM639.131 96.53V95.72H638.131V96.53H639.131ZM639.131 95.72C639.131 95.5923 639.153 95.5246 639.168 95.4936L638.274 95.0464C638.17 95.2554 638.131 95.4877 638.131 95.72H639.131ZM639.155 95.5181C639.226 95.3951 639.291 95.2977 639.352 95.2223L638.571 94.5977C638.471 94.7223 638.377 94.8649 638.287 95.0219L639.155 95.5181ZM639.33 95.2475L645.15 88.8875L644.412 88.2125L638.592 94.5725L639.33 95.2475ZM644.781 88.05H635.931V89.05H644.781V88.05ZM635.931 88.05C635.84 88.05 635.788 88.0259 635.747 87.9904L635.096 88.7496C635.334 88.9541 635.623 89.05 635.931 89.05V88.05ZM635.775 88.0164C635.774 88.0157 635.741 87.9884 635.741 87.86H634.741C634.741 88.1716 634.828 88.4843 635.068 88.7236L635.775 88.0164ZM635.741 87.86V86.72H634.741V87.86H635.741ZM635.741 86.72C635.741 86.5916 635.774 86.5643 635.775 86.5636L635.068 85.8564C634.828 86.0957 634.741 86.4084 634.741 86.72H635.741ZM635.775 86.5636C635.82 86.5184 635.862 86.5 635.931 86.5V85.5C635.6 85.5 635.302 85.6216 635.068 85.8564L635.775 86.5636ZM635.931 86.5H647.901V85.5H635.931V86.5ZM647.901 86.5C648.006 86.5 648.025 86.5278 648.032 86.5354L648.791 85.8846C648.557 85.6122 648.236 85.5 647.901 85.5V86.5ZM648.086 86.5896C648.093 86.5962 648.121 86.615 648.121 86.72H649.121C649.121 86.385 649.009 86.0638 648.737 85.8304L648.086 86.5896ZM648.121 86.72V87.8H649.121V86.72H648.121ZM648.121 87.8C648.121 87.8382 648.112 87.8722 648.085 87.9126L648.917 88.4674C649.05 88.2678 649.121 88.0418 649.121 87.8H648.121ZM648.072 87.9327C648.025 88.0118 647.968 88.0935 647.901 88.1777L648.682 88.8023C648.774 88.6865 648.857 88.5682 648.93 88.4472L648.072 87.9327ZM647.919 88.156L642.129 94.606L642.873 95.274L648.663 88.824L647.919 88.156ZM642.47 95.439L642.95 95.469L643.012 94.471L642.532 94.441L642.47 95.439ZM642.966 95.4698C644.235 95.5082 645.318 95.7383 646.226 96.1461L646.636 95.2339C645.584 94.7617 644.367 94.5118 642.996 94.4702L642.966 95.4698ZM646.23 96.1477C647.142 96.5492 647.831 97.1435 648.315 97.9316L649.167 97.4085C648.571 96.4366 647.72 95.7108 646.633 95.2323L646.23 96.1477ZM648.322 97.9428C648.816 98.7014 649.081 99.6894 649.081 100.94H650.081C650.081 99.5506 649.786 98.3586 649.16 97.3972L648.322 97.9428ZM649.081 100.94C649.081 102.195 648.774 103.242 648.179 104.107L649.003 104.673C649.729 103.618 650.081 102.365 650.081 100.94H649.081ZM648.182 104.103C647.58 104.96 646.747 105.624 645.663 106.091L646.059 107.009C647.295 106.476 648.282 105.7 649 104.677L648.182 104.103ZM645.663 106.091C644.575 106.56 643.334 106.8 641.931 106.8V107.8C643.449 107.8 644.828 107.54 646.059 107.009L645.663 106.091Z" fill="black"/>
<path d="M334 122C347.807 122 359 110.807 359 97C359 83.1929 347.807 72 334 72C320.193 72 309 83.1929 309 97C309 110.807 320.193 122 334 122Z" fill="#5DA9E9" stroke="black"/>
<path d="M327.356 107C327.156 107 326.986 106.94 326.846 106.82C326.726 106.68 326.666 106.51 326.666 106.31V105.35C326.666 105.17 326.716 104.97 326.816 104.75C326.916 104.53 327.116 104.29 327.416 104.03L333.776 97.67C334.796 96.81 335.596 96.08 336.176 95.48C336.776 94.86 337.196 94.27 337.436 93.71C337.696 93.15 337.826 92.57 337.826 91.97C337.826 90.83 337.506 89.93 336.866 89.27C336.226 88.59 335.276 88.25 334.016 88.25C333.216 88.25 332.526 88.42 331.946 88.76C331.366 89.08 330.906 89.53 330.566 90.11C330.246 90.67 330.036 91.31 329.936 92.03C329.896 92.29 329.786 92.47 329.606 92.57C329.446 92.67 329.296 92.72 329.156 92.72H327.596C327.416 92.72 327.266 92.67 327.146 92.57C327.026 92.45 326.966 92.31 326.966 92.15C326.986 91.39 327.146 90.63 327.446 89.87C327.746 89.09 328.186 88.39 328.766 87.77C329.366 87.15 330.096 86.65 330.956 86.27C331.836 85.87 332.856 85.67 334.016 85.67C335.596 85.67 336.886 85.96 337.886 86.54C338.906 87.1 339.656 87.85 340.136 88.79C340.616 89.73 340.856 90.76 340.856 91.88C340.856 92.76 340.706 93.57 340.406 94.31C340.106 95.03 339.666 95.74 339.086 96.44C338.526 97.12 337.826 97.82 336.986 98.54L331.226 104.39H340.586C340.806 104.39 340.976 104.45 341.096 104.57C341.236 104.69 341.306 104.86 341.306 105.08V106.31C341.306 106.51 341.236 106.68 341.096 106.82C340.976 106.94 340.806 107 340.586 107H327.356Z" fill="black"/>
<path d="M326.846 106.82L326.467 107.145L326.492 107.175L326.521 107.2L326.846 106.82ZM327.416 104.03L327.744 104.408L327.757 104.396L327.77 104.384L327.416 104.03ZM333.776 97.67L333.454 97.2877L333.438 97.3014L333.423 97.3164L333.776 97.67ZM337.436 93.71L336.983 93.4994L336.98 93.5062L336.977 93.513L337.436 93.71ZM336.866 89.27L336.502 89.6127L336.507 89.6181L336.866 89.27ZM331.946 88.76L332.188 89.1979L332.199 89.1913L331.946 88.76ZM330.566 90.11L330.135 89.8571L330.132 89.8619L330.566 90.11ZM329.936 92.03L330.431 92.106L330.432 92.0988L329.936 92.03ZM329.606 92.57L329.363 92.1329L329.352 92.1392L329.341 92.146L329.606 92.57ZM327.146 92.57L326.793 92.9236L326.809 92.9396L326.826 92.9541L327.146 92.57ZM326.966 92.15L326.466 92.1368V92.15H326.966ZM327.446 89.87L327.911 90.0536L327.913 90.0495L327.446 89.87ZM328.766 87.77L328.407 87.4222L328.401 87.4284L328.766 87.77ZM330.956 86.27L331.158 86.7274L331.163 86.7252L330.956 86.27ZM337.886 86.54L337.635 86.9726L337.646 86.9783L337.886 86.54ZM340.406 94.31L340.868 94.5023L340.87 94.4979L340.406 94.31ZM339.086 96.44L338.701 96.121L338.7 96.1221L339.086 96.44ZM336.986 98.54L336.661 98.1604L336.645 98.1741L336.63 98.1892L336.986 98.54ZM331.226 104.39L330.87 104.039L330.032 104.89H331.226V104.39ZM341.096 104.57L340.743 104.924L340.756 104.937L340.771 104.95L341.096 104.57ZM327.356 106.5C327.265 106.5 327.213 106.476 327.172 106.44L326.521 107.2C326.759 107.404 327.048 107.5 327.356 107.5V106.5ZM327.226 106.495C327.19 106.453 327.166 106.402 327.166 106.31H326.166C326.166 106.618 326.262 106.907 326.467 107.145L327.226 106.495ZM327.166 106.31V105.35H326.166V106.31H327.166ZM327.166 105.35C327.166 105.261 327.191 105.133 327.271 104.957L326.361 104.543C326.241 104.807 326.166 105.079 326.166 105.35H327.166ZM327.271 104.957C327.329 104.831 327.467 104.647 327.744 104.408L327.089 103.652C326.765 103.933 326.504 104.229 326.361 104.543L327.271 104.957ZM327.77 104.384L334.13 98.0236L333.423 97.3164L327.063 103.676L327.77 104.384ZM334.099 98.0523C335.125 97.187 335.939 96.4447 336.536 95.8275L335.817 95.1323C335.253 95.7151 334.468 96.433 333.454 97.2877L334.099 98.0523ZM336.536 95.8275C337.162 95.1805 337.624 94.5409 337.896 93.907L336.977 93.513C336.768 93.9991 336.391 94.5393 335.817 95.1323L336.536 95.8275ZM337.89 93.9206C338.18 93.2966 338.326 92.6449 338.326 91.97H337.326C337.326 92.4951 337.213 93.0034 336.983 93.4994L337.89 93.9206ZM338.326 91.97C338.326 90.7329 337.976 89.6964 337.225 88.9219L336.507 89.6181C337.036 90.1636 337.326 90.9271 337.326 91.97H338.326ZM337.23 88.9273C336.466 88.1155 335.364 87.75 334.016 87.75V88.75C335.188 88.75 335.986 89.0645 336.502 89.6127L337.23 88.9273ZM334.016 87.75C333.144 87.75 332.364 87.9358 331.693 88.3286L332.199 89.1913C332.689 88.9042 333.288 88.75 334.016 88.75V87.75ZM331.705 88.3222C331.045 88.6863 330.52 89.2008 330.135 89.8571L330.998 90.3629C331.293 89.8592 331.688 89.4738 332.188 89.1979L331.705 88.3222ZM330.132 89.8619C329.777 90.4838 329.549 91.1861 329.441 91.9612L330.432 92.0988C330.524 91.4339 330.716 90.8562 331 90.3581L330.132 89.8619ZM329.442 91.954C329.418 92.1076 329.372 92.1281 329.363 92.1329L329.849 93.0071C330.201 92.8119 330.374 92.4724 330.43 92.106L329.442 91.954ZM329.341 92.146C329.234 92.2131 329.175 92.22 329.156 92.22V93.22C329.417 93.22 329.659 93.1269 329.871 92.994L329.341 92.146ZM329.156 92.22H327.596V93.22H329.156V92.22ZM327.596 92.22C327.514 92.22 327.483 92.1998 327.466 92.1859L326.826 92.9541C327.05 93.1402 327.318 93.22 327.596 93.22V92.22ZM327.5 92.2164C327.467 92.1839 327.466 92.1687 327.466 92.15H326.466C326.466 92.4513 326.585 92.7161 326.793 92.9236L327.5 92.2164ZM327.466 92.1632C327.484 91.4658 327.631 90.7633 327.911 90.0536L326.981 89.6864C326.661 90.4967 326.488 91.3142 326.466 92.1368L327.466 92.1632ZM327.913 90.0495C328.189 89.3305 328.595 88.6854 329.131 88.1116L328.401 87.4284C327.778 88.0946 327.303 88.8495 326.98 89.6905L327.913 90.0495ZM329.126 88.1177C329.677 87.5481 330.352 87.0837 331.158 86.7274L330.754 85.8127C329.841 86.2164 329.056 86.7518 328.407 87.4222L329.126 88.1177ZM331.163 86.7252C331.967 86.36 332.914 86.17 334.016 86.17V85.17C332.799 85.17 331.706 85.38 330.749 85.8148L331.163 86.7252ZM334.016 86.17C335.539 86.17 336.735 86.4501 337.635 86.9726L338.137 86.1075C337.038 85.47 335.653 85.17 334.016 85.17V86.17ZM337.646 86.9783C338.587 87.4952 339.261 88.1757 339.691 89.0174L340.582 88.5626C340.051 87.5243 339.225 86.7048 338.127 86.1017L337.646 86.9783ZM339.691 89.0174C340.133 89.8827 340.356 90.8341 340.356 91.88H341.356C341.356 90.6859 341.1 89.5773 340.582 88.5626L339.691 89.0174ZM340.356 91.88C340.356 92.7022 340.216 93.4476 339.943 94.1221L340.87 94.4979C341.196 93.6924 341.356 92.8178 341.356 91.88H340.356ZM339.945 94.1177C339.667 94.7851 339.255 95.453 338.701 96.121L339.471 96.759C340.078 96.027 340.546 95.2749 340.868 94.5023L339.945 94.1177ZM338.7 96.1221C338.163 96.775 337.484 97.4546 336.661 98.1604L337.312 98.9196C338.168 98.1854 338.89 97.465 339.472 96.7579L338.7 96.1221ZM336.63 98.1892L330.87 104.039L331.583 104.741L337.343 98.8908L336.63 98.1892ZM331.226 104.89H340.586V103.89H331.226V104.89ZM340.586 104.89C340.715 104.89 340.742 104.923 340.743 104.924L341.45 104.216C341.211 103.977 340.898 103.89 340.586 103.89V104.89ZM340.771 104.95C340.779 104.956 340.806 104.975 340.806 105.08H341.806C341.806 104.745 341.694 104.424 341.422 104.19L340.771 104.95ZM340.806 105.08V106.31H341.806V105.08H340.806ZM340.806 106.31C340.806 106.379 340.788 106.421 340.743 106.466L341.45 107.174C341.685 106.939 341.806 106.641 341.806 106.31H340.806ZM340.743 106.466C340.742 106.467 340.715 106.5 340.586 106.5V107.5C340.898 107.5 341.211 107.413 341.45 107.174L340.743 106.466ZM340.586 106.5H327.356V107.5H340.586V106.5Z" fill="black"/>
<path d="M26 122C39.8071 122 51 110.807 51 97C51 83.1929 39.8071 72 26 72C12.1929 72 1 83.1929 1 97C1 110.807 12.1929 122 26 122Z" fill="#688B58" stroke="black"/>
<mask id="mask0_1_2" style="mask-type:luminance" maskUnits="userSpaceOnUse" x="3" y="75" width="45" height="45">
<path d="M48 75H3V120H48V75Z" fill="white"/>
</mask>
<g mask="url(#mask0_1_2)">
<path d="M19.8748 105.319L12.0561 97.5L9.39355 100.144L19.8748 110.625L42.3748 88.125L39.7311 85.4812L19.8748 105.319Z" fill="black"/>
</g>
<path d="M308.5 93.5H51.5V101.5H308.5V93.5Z" fill="#688B58" stroke="black"/>
<path d="M616.5 93.5H359.5V101.5H616.5V93.5Z" fill="#D9D9D9" stroke="black"/>
</svg>
