<svg width="668" height="55" viewBox="0 0 668 55" fill="none" xmlns="http://www.w3.org/2000/svg">
<circle cx="642" cy="26" r="25" fill="#DAEEFF" stroke="black"/>
<path d="M641.931 36.3C640.671 36.3 639.571 36.15 638.631 35.85C637.691 35.53 636.901 35.11 636.261 34.59C635.621 34.07 635.131 33.5 634.791 32.88C634.471 32.26 634.301 31.62 634.281 30.96C634.281 30.78 634.341 30.64 634.461 30.54C634.581 30.44 634.731 30.39 634.911 30.39H636.381C636.561 30.39 636.721 30.43 636.861 30.51C637.001 30.59 637.121 30.76 637.221 31.02C637.421 31.74 637.761 32.3 638.241 32.7C638.741 33.1 639.311 33.38 639.951 33.54C640.611 33.68 641.271 33.75 641.931 33.75C643.311 33.75 644.431 33.42 645.291 32.76C646.151 32.1 646.581 31.13 646.581 29.85C646.581 28.55 646.191 27.62 645.411 27.06C644.631 26.5 643.551 26.22 642.171 26.22H639.321C639.121 26.22 638.951 26.16 638.811 26.04C638.691 25.92 638.631 25.75 638.631 25.53V24.72C638.631 24.54 638.661 24.39 638.721 24.27C638.801 24.13 638.881 24.01 638.961 23.91L644.781 17.55H635.931C635.731 17.55 635.561 17.49 635.421 17.37C635.301 17.25 635.241 17.08 635.241 16.86V15.72C635.241 15.5 635.301 15.33 635.421 15.21C635.561 15.07 635.731 15 635.931 15H647.901C648.121 15 648.291 15.07 648.411 15.21C648.551 15.33 648.621 15.5 648.621 15.72V16.8C648.621 16.94 648.581 17.07 648.501 17.19C648.441 17.29 648.371 17.39 648.291 17.49L642.501 23.94L642.981 23.97C644.301 24.01 645.451 24.25 646.431 24.69C647.431 25.13 648.201 25.79 648.741 26.67C649.301 27.53 649.581 28.62 649.581 29.94C649.581 31.28 649.251 32.43 648.591 33.39C647.931 34.33 647.021 35.05 645.861 35.55C644.701 36.05 643.391 36.3 641.931 36.3Z" fill="black"/>
<path d="M638.631 35.85L638.47 36.3234L638.479 36.3263L638.631 35.85ZM636.261 34.59L635.946 34.9781L636.261 34.59ZM634.791 32.88L634.347 33.1094L634.353 33.1204L634.791 32.88ZM634.281 30.96H633.781V30.9676L633.781 30.9751L634.281 30.96ZM634.461 30.54L634.141 30.1559L634.461 30.54ZM636.861 30.51L637.109 30.0759H637.109L636.861 30.51ZM637.221 31.02L637.703 30.8862L637.697 30.863L637.688 30.8405L637.221 31.02ZM638.241 32.7L637.921 33.0842L637.929 33.0904L638.241 32.7ZM639.951 33.54L639.83 34.0251L639.839 34.0273L639.847 34.0291L639.951 33.54ZM645.291 32.76L645.596 33.1567L645.291 32.76ZM645.411 27.06L645.703 26.6538L645.411 27.06ZM638.811 26.04L638.458 26.3936L638.471 26.4071L638.486 26.4196L638.811 26.04ZM638.721 24.27L638.287 24.0219L638.28 24.034L638.274 24.0464L638.721 24.27ZM638.961 23.91L638.592 23.5725L638.581 23.5847L638.571 23.5977L638.961 23.91ZM644.781 17.55L645.15 17.8875L645.917 17.05H644.781V17.55ZM635.421 17.37L635.068 17.7236L635.081 17.7371L635.096 17.7496L635.421 17.37ZM635.421 15.21L635.775 15.5636L635.775 15.5636L635.421 15.21ZM648.411 15.21L648.032 15.5354L648.057 15.5646L648.086 15.5896L648.411 15.21ZM648.501 17.19L648.085 16.9126L648.079 16.9225L648.072 16.9327L648.501 17.19ZM648.291 17.49L648.663 17.824L648.673 17.8134L648.682 17.8023L648.291 17.49ZM642.501 23.94L642.129 23.606L641.439 24.3746L642.47 24.439L642.501 23.94ZM642.981 23.97L642.95 24.469L642.958 24.4695L642.966 24.4698L642.981 23.97ZM646.431 24.69L646.226 25.1461L646.23 25.1477L646.431 24.69ZM648.741 26.67L648.315 26.9316L648.322 26.9428L648.741 26.67ZM648.591 33.39L649 33.6773L649.003 33.6733L648.591 33.39ZM645.861 35.55L646.059 36.0092L645.861 35.55ZM641.931 35.8C640.709 35.8 639.663 35.6543 638.783 35.3737L638.479 36.3263C639.48 36.6457 640.633 36.8 641.931 36.8V35.8ZM638.792 35.3767C637.897 35.072 637.162 34.6779 636.577 34.2019L635.946 34.9781C636.64 35.5421 637.485 35.988 638.47 36.3233L638.792 35.3767ZM636.577 34.2019C635.978 33.716 635.534 33.1943 635.23 32.6396L634.353 33.1204C634.729 33.8057 635.264 34.424 635.946 34.9781L636.577 34.2019ZM635.236 32.6507C634.948 32.0932 634.799 31.526 634.781 30.9449L633.781 30.9751C633.804 31.714 633.995 32.4268 634.347 33.1093L635.236 32.6507ZM634.781 30.96C634.781 30.9256 634.787 30.9145 634.786 30.917C634.785 30.918 634.784 30.9202 634.782 30.9225C634.781 30.9248 634.78 30.9253 634.781 30.9241L634.141 30.1559C633.889 30.3659 633.781 30.6569 633.781 30.96H634.781ZM634.781 30.9241C634.798 30.9102 634.829 30.89 634.911 30.89V29.89C634.633 29.89 634.364 29.9698 634.141 30.1559L634.781 30.9241ZM634.911 30.89H636.381V29.89H634.911V30.89ZM636.381 30.89C636.485 30.89 636.557 30.9121 636.613 30.9441L637.109 30.0759C636.885 29.9478 636.638 29.89 636.381 29.89V30.89ZM636.613 30.9441C636.604 30.9389 636.618 30.9439 636.648 30.9858C636.677 31.0279 636.715 31.0959 636.755 31.1995L637.688 30.8405C637.574 30.5438 637.4 30.2418 637.109 30.0759L636.613 30.9441ZM636.739 31.1538C636.961 31.9522 637.349 32.6072 637.921 33.0841L638.561 32.3159C638.174 31.9928 637.881 31.5278 637.703 30.8862L636.739 31.1538ZM637.929 33.0904C638.487 33.5367 639.122 33.8482 639.83 34.0251L640.072 33.0549C639.5 32.9118 638.996 32.6633 638.554 32.3096L637.929 33.0904ZM639.847 34.0291C640.541 34.1762 641.236 34.25 641.931 34.25V33.25C641.307 33.25 640.682 33.1838 640.055 33.0509L639.847 34.0291ZM641.931 34.25C643.391 34.25 644.627 33.9001 645.596 33.1567L644.987 32.3633C644.236 32.9399 643.232 33.25 641.931 33.25V34.25ZM645.596 33.1567C646.602 32.3843 647.081 31.2538 647.081 29.85H646.081C646.081 31.0062 645.7 31.8157 644.987 32.3633L645.596 33.1567ZM647.081 29.85C647.081 28.4509 646.657 27.3388 645.703 26.6538L645.12 27.4662C645.725 27.9012 646.081 28.6491 646.081 29.85H647.081ZM645.703 26.6538C644.808 26.0114 643.612 25.72 642.171 25.72V26.72C643.491 26.72 644.454 26.9886 645.12 27.4662L645.703 26.6538ZM642.171 25.72H639.321V26.72H642.171V25.72ZM639.321 25.72C639.23 25.72 639.178 25.6959 639.137 25.6604L638.486 26.4196C638.724 26.6241 639.013 26.72 639.321 26.72V25.72ZM639.165 25.6864C639.164 25.6857 639.131 25.6584 639.131 25.53H638.131C638.131 25.8416 638.218 26.1543 638.458 26.3936L639.165 25.6864ZM639.131 25.53V24.72H638.131V25.53H639.131ZM639.131 24.72C639.131 24.5923 639.153 24.5246 639.168 24.4936L638.274 24.0464C638.17 24.2554 638.131 24.4877 638.131 24.72H639.131ZM639.155 24.5181C639.226 24.3951 639.291 24.2977 639.352 24.2223L638.571 23.5977C638.471 23.7223 638.377 23.8649 638.287 24.0219L639.155 24.5181ZM639.33 24.2475L645.15 17.8875L644.412 17.2125L638.592 23.5725L639.33 24.2475ZM644.781 17.05H635.931V18.05H644.781V17.05ZM635.931 17.05C635.84 17.05 635.788 17.0259 635.747 16.9904L635.096 17.7496C635.334 17.9541 635.623 18.05 635.931 18.05V17.05ZM635.775 17.0164C635.774 17.0157 635.741 16.9884 635.741 16.86H634.741C634.741 17.1716 634.828 17.4843 635.068 17.7236L635.775 17.0164ZM635.741 16.86V15.72H634.741V16.86H635.741ZM635.741 15.72C635.741 15.5916 635.774 15.5643 635.775 15.5636L635.068 14.8564C634.828 15.0957 634.741 15.4084 634.741 15.72H635.741ZM635.775 15.5636C635.82 15.5184 635.862 15.5 635.931 15.5V14.5C635.6 14.5 635.302 14.6216 635.068 14.8564L635.775 15.5636ZM635.931 15.5H647.901V14.5H635.931V15.5ZM647.901 15.5C648.006 15.5 648.025 15.5278 648.032 15.5354L648.791 14.8846C648.557 14.6122 648.236 14.5 647.901 14.5V15.5ZM648.086 15.5896C648.093 15.5962 648.121 15.615 648.121 15.72H649.121C649.121 15.385 649.009 15.0638 648.737 14.8304L648.086 15.5896ZM648.121 15.72V16.8H649.121V15.72H648.121ZM648.121 16.8C648.121 16.8382 648.112 16.8722 648.085 16.9126L648.917 17.4674C649.05 17.2678 649.121 17.0418 649.121 16.8H648.121ZM648.072 16.9327C648.025 17.0118 647.968 17.0935 647.901 17.1777L648.682 17.8023C648.774 17.6865 648.857 17.5682 648.93 17.4472L648.072 16.9327ZM647.919 17.156L642.129 23.606L642.873 24.274L648.663 17.824L647.919 17.156ZM642.47 24.439L642.95 24.469L643.012 23.471L642.532 23.441L642.47 24.439ZM642.966 24.4698C644.235 24.5082 645.318 24.7383 646.226 25.1461L646.636 24.2339C645.584 23.7617 644.367 23.5118 642.996 23.4702L642.966 24.4698ZM646.23 25.1477C647.142 25.5492 647.831 26.1434 648.315 26.9315L649.167 26.4085C648.571 25.4366 647.72 24.7108 646.633 24.2323L646.23 25.1477ZM648.322 26.9428C648.816 27.7014 649.081 28.6894 649.081 29.94H650.081C650.081 28.5506 649.786 27.3586 649.16 26.3972L648.322 26.9428ZM649.081 29.94C649.081 31.1945 648.774 32.2421 648.179 33.1067L649.003 33.6733C649.729 32.6179 650.081 31.3655 650.081 29.94H649.081ZM648.182 33.1027C647.58 33.9595 646.747 34.6237 645.663 35.0908L646.059 36.0092C647.295 35.4763 648.282 34.7005 649 33.6773L648.182 33.1027ZM645.663 35.0908C644.575 35.56 643.334 35.8 641.931 35.8V36.8C643.449 36.8 644.828 36.54 646.059 36.0092L645.663 35.0908Z" fill="black"/>
<circle cx="26" cy="26" r="25" fill="#688B58" stroke="black"/>
<path d="M19.8748 34.3188L12.0561 26.5L9.39355 29.1438L19.8748 39.625L42.3748 17.125L39.7311 14.4813L19.8748 34.3188Z" fill="black"/>
<rect x="51.5" y="22.5" width="257" height="8" fill="#688B58" stroke="black"/>
<rect x="359.5" y="23.5" width="257" height="8" fill="#688B58" stroke="black"/>
<circle cx="334" cy="29" r="25" fill="#688B58" stroke="black"/>
<path d="M327.875 37.3188L320.056 29.5L317.394 32.1438L327.875 42.625L350.375 20.125L347.731 17.4813L327.875 37.3188Z" fill="black"/>
</svg>
